ply
format ascii 1.0
comment Created by Blender 2.74 (sub 0) - www.blender.org, source file: ''
element vertex 24
property float x
property float y
property float z
property float nx
property float ny
property float nz
element face 8
property list uchar uint vertex_indices
end_header
1.000000 -1.000000 0.000602 0.053219 0.128442 -0.990288
-1.000000 -1.327792 -0.149395 0.053219 0.128442 -0.990288
-1.000000 1.000000 0.152523 0.053219 0.128442 -0.990288
1.000000 1.340834 0.000602 -0.075742 0.000000 -0.997127
1.000000 -1.000000 0.000602 -0.075742 0.000000 -0.997127
-1.000000 1.000000 0.152523 -0.075742 0.000000 -0.997127
1.057350 2.928086 0.086743 0.053219 0.128442 -0.990288
-0.942651 2.600294 -0.063254 0.053219 0.128442 -0.990288
-0.942650 4.928086 0.238664 0.053219 0.128442 -0.990288
1.057350 5.268919 0.086743 -0.075742 0.000000 -0.997127
1.057350 2.928086 0.086743 -0.075742 0.000000 -0.997127
-0.942650 4.928086 0.238664 -0.075742 0.000000 -0.997127
-2.049162 -1.170791 0.085260 0.053219 0.128442 -0.990288
-4.049162 -1.498583 -0.064738 0.053219 0.128442 -0.990288
-4.049162 0.829209 0.237181 0.053219 0.128442 -0.990288
-2.049162 1.170042 0.085260 -0.075742 0.000000 -0.997127
-2.049162 -1.170791 0.085260 -0.075742 0.000000 -0.997127
-4.049162 0.829209 0.237181 -0.075742 0.000000 -0.997127
-1.991813 2.757295 0.171400 0.053219 0.128442 -0.990288
-3.991813 2.429503 0.021403 0.053219 0.128442 -0.990288
-3.991812 4.757295 0.323321 0.053219 0.128442 -0.990288
-1.991813 5.098128 0.171400 -0.075742 0.000000 -0.997127
-1.991813 2.757295 0.171400 -0.075742 0.000000 -0.997127
-3.991812 4.757295 0.323321 -0.075742 0.000000 -0.997127
3 0 1 2
3 3 4 5
3 6 7 8
3 9 10 11
3 12 13 14
3 15 16 17
3 18 19 20
3 21 22 23
